<?xml version="1.0" encoding="utf-8"?>
<!-- Generator: Adobe Illustrator 22.0.1, SVG Export Plug-In . SVG Version: 6.00 Build 0)  -->
<svg version="1.1" id="Layer_1" xmlns="http://www.w3.org/2000/svg" xmlns:xlink="http://www.w3.org/1999/xlink" x="0px" y="0px"
	 viewBox="0 0 1400 1000" style="enable-background:new 0 0 1400 1000;" xml:space="preserve">
<style type="text/css">
	.st0{fill:#078783;}
	.st1{opacity:0.18;fill:#FFFFFF;}
	.st2{opacity:0.16;fill:#FFFFFF;}
	.st3{opacity:0.4;fill:#24562E;}
	.st4{fill:#06756F;}
	.st5{opacity:0.51;fill:#06756F;}
	.st6{opacity:0.58;fill:#24562E;}
	.st7{fill:#24562E;}
	.st8{fill:#8DE8F7;}
	.st9{fill:#FFFFFF;}
	.st10{fill:#28C1C9;}
	.st11{opacity:0.45;fill:#8DE8F7;}
	.st12{opacity:0.48;fill:#28C1C9;}
</style>
<g>
	<rect class="st0" width="1400" height="1000"/>
	<g>
		<path class="st1" d="M650.9,383.7c-271.6-130.4-506.4-75-650.9-9.7V559c0,31.4,28.1,56.8,62.7,56.8h1274.6
			c34.6,0,62.7-25.4,62.7-56.8V449.6C1195.4,488.4,905.7,506,650.9,383.7z"/>
		<path class="st1" d="M1381.4,599.4c-100.3-24.2-219.7-89.3-515.5-209.2c-362.7-147-740.1,74-865.9,159.6v9.2
			c0,31.4,28.1,56.8,62.7,56.8h1274.6C1354.5,615.9,1370.1,609.6,1381.4,599.4z"/>
		<path class="st2" d="M1195.2,363.9C988.4,334.7,692.2,570,415.5,441C234.3,356.6,83,416.1,0,467.4V559c0,31.4,28.1,56.8,62.7,56.8
			h1274.6c34.6,0,62.7-25.4,62.7-56.8V439C1326.5,411.3,1241.2,370.4,1195.2,363.9z"/>
	</g>
	<path class="st3" d="M581.1,472.8c-5.5-69.1-10.4-120-10.4-128.8c0-26.6-12.8-257.2-17.3-344h104c4.5,95.9,10.2,241.5,10.2,312.4
		c0,43.5,8.7,118.8,18.1,188.9c-27.2-4.5-54.1,6-60.6,8C615.6,492.3,599.9,479.1,581.1,472.8z"/>
	<path class="st3" d="M702.2,616.8H590.8c0-0.9-0.1-1.9-0.2-2.8h111.2C701.9,615,702.1,615.9,702.2,616.8z"/>
	<path class="st4" d="M1097.3,329.3c-0.7,14.4,7.4,150.7,7.1,287.5h107c-6.1-62.6-25.3-238.2-21.9-313c3.2-69.1,4-214.2,3.9-303.9
		h-97.5C1096.3,76.3,1098.5,303.8,1097.3,329.3z"/>
	<path class="st4" d="M759.7,398c0,12.3,9.7,107,16.9,218.8h106.7c-11.9-83-26.7-193.7-26.7-250.5c0-86.2-8.5-282.9-12.9-366.4
		H740.6c0.3,17.7,0.7,32.7,1.2,43.8C745.8,121,759.7,370.3,759.7,398z"/>
	<path class="st5" d="M180.2,616.8h128.5c0.4-40.3,0.6-71.3,0.6-82.6V0H183.7c0.6,47,1,78.7,1,84.8
		C184.7,105.8,182,416.5,180.2,616.8z"/>
	<path class="st4" d="M353.8,76.8c-0.9-17.5-1.4-44.9-1.6-76.8h101.7c0.3,5.7,0.6,10.9,0.8,15.5c4,69.3,13.9,290.9,13.9,383.9
		c0,12.3,0.7,27.2,1.9,43.7c-12.2-7.3-26.5-11.4-41.8-11.4c-21.4,0-41,8.2-55.6,21.7c-1-11.6-1.5-19.4-1.5-22.3"/>
	<path class="st4" d="M490.6,616.8H386.3c-0.1-0.9-0.1-1.9-0.2-2.8h104.1C490.4,615,490.5,615.9,490.6,616.8z"/>
	<path class="st3" d="M913.9,616.8h108.7c0.3-38.6,0.5-68.3,0.5-79.1V0H916.6c0.7,56.6,1.1,95.8,1.1,102.5
		C917.7,122.8,915.4,422.8,913.9,616.8z"/>
	<path class="st6" d="M1400,0v467.2c-7.1-1.9-14.4-2.9-22.1-2.9c-7.7,0-15.2,1-22.3,3c-10.3-21.6-32.3-36.5-57.8-36.5
		c-3.8,0-7.4,0.3-11,1c-2.8-115.4-6.7-284.2-10.1-431.8H1400z"/>
	<path class="st4" d="M260.1,46.8L317.8,0h-80.4c-18.8,13.8-36,25.7-47.4,31.8c-39.2,21-84,33-84,33L120.3,0H0v695.2l150.9-54.4
		c0,0-39.2-132-42-234s-25.2-246,11.2-285S260.1,46.8,260.1,46.8z"/>
	<path class="st7" d="M393.7,614c0.8-4.6,1.2-9.4,1.2-14.2c0-46.6-36.7-84.5-82.8-86.6c-8.3-19.5-24.3-34.9-44.2-42.5
		c-7.1-40.9-42.8-71.9-85.7-71.9c-43.6,0-79.7,32.1-86,74c-2-0.2-4-0.3-6-0.3c-26.3,0-49.1,15.1-60.2,37.2
		c-8.2-2.4-16.8-3.8-25.8-3.8c-1.4,0-2.8,0-4.2,0.1v108H393.7z"/>
	<rect y="614" class="st8" width="1400" height="386"/>
	<g>
		<path class="st7" d="M1020.8,646.4c-3.3-3.1-7.2-6.4-11.7-9.7c-14.4-10.3-49.3,11.3-49.3,11.3H841.6
			c-57.2-51.6-105.8,5.1-105.8,5.1l-81.1-18.1l9.5,20.1l-70.9-5.9l10.6,20.1l-74.4-1.2l8.3,15.4l-62.6-3.5l13,17.7l-67.4-5.9
			l10.6,17.3l-62.3,1.3l15.1,18l585.8,1.8l11.5-14.2h-10.5l-9.2-9.9l-9.1,9.7l-9.1-9.7l-9.1,9.7l-9.1-9.7l-9.1,9.7l-9.1-9.7
			l-9.1,9.7l-9.1-9.7l-9.1,9.7l-9.1-9.7l-9.1,9.7l-9.1-9.7l-9.1,9.7l-9.1-9.7l-9.1,9.7l-8.5-9.1l12.6-14.2h0.4l9.1,9.8l9.1-9.7
			l9.1,9.7l9.1-9.7l9.1,9.7l9.1-9.7l9.1,9.7l9.1-9.7l9.1,9.7l9.1-9.7l9.1,9.7l9.1-9.7l9.1,9.7l9.1-9.7l9.1,9.7l9.1-9.7l9.1,9.7
			l9.1-9.7l9.1,9.7l9.1-9.8h0.1l12.6-21.7C1028.9,662.9,1027.5,652.7,1020.8,646.4z"/>
		<path class="st9" d="M806.7,652.6c-5-22.8-44.9-12.6-42.8,4.5L806.7,652.6z"/>
		<polygon class="st9" points="997,646.1 987.5,649.6 1000.9,654.4 		"/>
	</g>
	<g>
		<g>
			<path class="st10" d="M1062.4,729.1H318.8c-9.2,0-16.7,7.5-16.7,16.7v0c0,9.2,7.5,16.7,16.7,16.7h105l-1.7,0.1
				c9.2,0,16.7,7.5,16.7,16.7c0,7-4.4,13.1-10.6,15.5h-50.8c-9.2,0-16.7,7.5-16.7,16.7v0c0,9.2,7.5,16.7,16.7,16.7h52.3
				c5.4,2.8,9.1,8.4,9.1,14.9c0,6.2-3.5,11.7-8.5,14.6H244c-9.2,0-16.7,7.5-16.7,16.7v0c0,9.2,7.5,16.7,16.7,16.7h874.3
				c9.2,0,16.7-7.5,16.7-16.7v0c0-9.2-7.5-16.7-16.7-16.7H929c-5.1-2.9-8.5-8.3-8.5-14.6c0-6.5,3.7-12.1,9.1-14.9h81.8
				c9.2,0,16.7-7.5,16.7-16.7v0c0-9.2-7.5-16.7-16.7-16.7H931c-6.2-2.5-10.6-8.5-10.6-15.5c0-9.2,7.5-16.7,16.7-16.7l-0.6-0.1h125.9
				c9.2,0,16.7-7.5,16.7-16.7v0C1079.2,736.7,1071.7,729.1,1062.4,729.1z"/>
			<g>
				<path class="st11" d="M533,799h-59.4c-7.8,0-14.2,6.4-14.2,14.2l0,0c0,7.8,6.4,14.2,14.2,14.2H533c7.8,0,14.2-6.4,14.2-14.2l0,0
					C547.2,805.4,540.8,799,533,799z"/>
				<path class="st11" d="M871.7,850.2h-13c-7.8,0-14.2,6.4-14.2,14.2l0,0c0,7.8,6.4,14.2,14.2,14.2h13c7.8,0,14.2-6.4,14.2-14.2
					l0,0C885.9,856.7,879.5,850.2,871.7,850.2z"/>
				<path class="st11" d="M832,793.1h-4.6c-4.9,0-9,4-9,9v0c0,4.9,4,9,9,9h4.6c4.9,0,9-4,9-9v0C841,797.1,837,793.1,832,793.1z"/>
				<path class="st11" d="M472.3,866.8h-4.6c-4.9,0-9,4-9,9v0c0,4.9,4,9,9,9h4.6c4.9,0,9-4,9-9v0
					C481.3,870.8,477.2,866.8,472.3,866.8z"/>
				<path class="st11" d="M754,831.9h-4.6c-4.9,0-9,4-9,9l0,0c0,4.9,4,9,9,9h4.6c4.9,0,9-4,9-9l0,0C763,836,759,831.9,754,831.9z"/>
				<path class="st11" d="M586.6,751.4h-4.6c-4.9,0-9,4-9,9l0,0c0,4.9,4,9,9,9h4.6c4.9,0,9-4,9-9l0,0
					C595.5,755.4,591.5,751.4,586.6,751.4z"/>
				<path class="st11" d="M628.5,847.1h-12.4c-6.9,0-12.5,5.6-12.5,12.5v0c0,6.9,5.6,12.5,12.5,12.5h12.4c6.9,0,12.5-5.6,12.5-12.5
					v0C641,852.7,635.4,847.1,628.5,847.1z"/>
				<path class="st11" d="M676,848.1h-12.4c-6.9,0-12.5,5.6-12.5,12.5l0,0c0,6.9,5.6,12.5,12.5,12.5H676c6.9,0,12.5-5.6,12.5-12.5
					l0,0C688.5,853.7,682.9,848.1,676,848.1z"/>
				<path class="st11" d="M876.6,741.1h-12.4c-6.9,0-12.5,5.6-12.5,12.5l0,0c0,6.9,5.6,12.5,12.5,12.5h12.4
					c6.9,0,12.5-5.6,12.5-12.5l0,0C889.1,746.7,883.5,741.1,876.6,741.1z"/>
				<path class="st11" d="M724.9,754.1h-44.4c-6.9,0-12.5,5.6-12.5,12.5l0,0c0,6.9,5.6,12.5,12.5,12.5h44.4
					c6.9,0,12.5-5.6,12.5-12.5l0,0C737.4,759.7,731.8,754.1,724.9,754.1z"/>
			</g>
		</g>
		<g>
			<path class="st12" d="M211.1,924.2v-3.2c0-4.8-3.9-8.7-8.7-8.7H0v20.6h202.4C207.2,932.8,211.1,928.9,211.1,924.2z"/>
			<path class="st12" d="M598.4,948.3H321.6c-4.8,0-8.7,3.9-8.7,8.7v3.2c0,4.8,3.9,8.7,8.7,8.7h276.9c4.8,0,8.7-3.9,8.7-8.7v-3.2
				C607.1,952.2,603.2,948.3,598.4,948.3z"/>
			<path class="st12" d="M77.1,966.2v-3.2c0-4.8-3.9-8.7-8.7-8.7H0v20.6h68.4C73.2,974.8,77.1,970.9,77.1,966.2z"/>
			<path class="st12" d="M100.5,754.3v-3.2c0-4.8-3.9-8.7-8.7-8.7H0V763h91.9C96.6,763,100.5,759.1,100.5,754.3z"/>
			<path class="st10" d="M1317.8,844.6v3.6c0,2.3,1.9,4.2,4.2,4.2h78v-12h-78C1319.7,840.4,1317.8,842.3,1317.8,844.6z"/>
			<path class="st10" d="M1279.7,930.4H1194c-2.3,0-4.2,1.9-4.2,4.2v3.6c0,2.3,1.9,4.2,4.2,4.2h85.7c2.3,0,4.2-1.9,4.2-4.2v-3.6
				C1283.9,932.3,1282,930.4,1279.7,930.4z"/>
			<path class="st10" d="M1336.8,963.6v3.6c0,2.3,1.9,4.2,4.2,4.2h59v-12h-59C1338.7,959.4,1336.8,961.3,1336.8,963.6z"/>
			<path class="st10" d="M1270.1,751.6V748c0-2.3-1.9-4.2-4.2-4.2h-85.7c-2.3,0-4.2,1.9-4.2,4.2v3.6c0,2.3,1.9,4.2,4.2,4.2h85.7
				C1268.2,755.8,1270.1,753.9,1270.1,751.6z"/>
			<path class="st10" d="M1145.3,790.9v-2.7c0-1.7-1.4-3.2-3.2-3.2h-26.6c-1.7,0-3.2,1.4-3.2,3.2v2.7c0,1.7,1.4,3.2,3.2,3.2h26.6
				C1143.9,794.1,1145.3,792.6,1145.3,790.9z"/>
			<path class="st10" d="M1386.9,785.8h-26.6c-1.7,0-3.2,1.4-3.2,3.2v2.7c0,1.7,1.4,3.2,3.2,3.2h26.6c1.7,0,3.2-1.4,3.2-3.2V789
				C1390.1,787.3,1388.6,785.8,1386.9,785.8z"/>
			<path class="st10" d="M1290.9,885.8h-26.6c-1.7,0-3.2,1.4-3.2,3.2v2.7c0,1.7,1.4,3.2,3.2,3.2h26.6c1.7,0,3.2-1.4,3.2-3.2V889
				C1294.1,887.3,1292.6,885.8,1290.9,885.8z"/>
			<path class="st10" d="M1330.3,648.4h62.4c1.1,0,2-0.9,2-2v-3.4c0-1.1-0.9-2-2-2h-62.4c-1.1,0-2,0.9-2,2v3.4
				C1328.3,647.5,1329.2,648.4,1330.3,648.4z"/>
			<path class="st10" d="M1272.4,644.4h6.8c1.3,0,2.3-1,2.3-2.3v-2c0-1.3-1-2.3-2.3-2.3h-6.8c-1.3,0-2.3,1-2.3,2.3v2
				C1270.1,643.4,1271.1,644.4,1272.4,644.4z"/>
			<path class="st10" d="M1287.3,626.3h4.2c1.1,0,2-0.9,2-2v-1.7c0-1.1-0.9-2-2-2h-4.2c-1.1,0-2,0.9-2,2v1.7
				C1285.3,625.4,1286.2,626.3,1287.3,626.3z"/>
			<path class="st10" d="M1308.3,658.2h-6c-1,0-1.9,0.8-1.9,1.9v1.6c0,1,0.8,1.9,1.9,1.9h6c1,0,1.9-0.8,1.9-1.9V660
				C1310.2,659,1309.3,658.2,1308.3,658.2z"/>
			<path class="st12" d="M1291.8,643.7v2.1c0,1.4,1.1,2.5,2.5,2.5h12.1c1.4,0,2.5-1.1,2.5-2.5v-2.1c0-1.4-1.1-2.5-2.5-2.5h-12.1
				C1292.9,641.2,1291.8,642.3,1291.8,643.7z"/>
			<path class="st12" d="M1328.6,702.1h29.8c1.6,0,2.8-1.3,2.8-2.8v-2.4c0-1.6-1.3-2.8-2.8-2.8h-29.8c-1.6,0-2.8,1.3-2.8,2.8v2.4
				C1325.8,700.9,1327.1,702.1,1328.6,702.1z"/>
			<path class="st12" d="M1368.5,757.2V755c0-1.4-1.2-2.6-2.6-2.6h-21.2c-1.4,0-2.6,1.2-2.6,2.6v2.2c0,1.4,1.2,2.6,2.6,2.6h21.2
				C1367.4,759.8,1368.5,758.6,1368.5,757.2z"/>
			<path class="st12" d="M1303.1,787.6h-6.7c-2.8,0-5.2,2.3-5.2,5.2v4.4c0,2.8,2.3,5.2,5.2,5.2h6.7c2.8,0,5.2-2.3,5.2-5.2v-4.4
				C1308.2,789.9,1305.9,787.6,1303.1,787.6z"/>
			<path class="st12" d="M208.9,973.8h-6.7c-2.8,0-5.2,2.3-5.2,5.2v4.4c0,2.8,2.3,5.2,5.2,5.2h6.7c2.8,0,5.2-2.3,5.2-5.2V979
				C214,976.2,211.7,973.8,208.9,973.8z"/>
			<path class="st12" d="M1107.8,836.9h-6.7c-2.8,0-5.2,2.3-5.2,5.2v4.4c0,2.8,2.3,5.2,5.2,5.2h6.7c2.8,0,5.2-2.3,5.2-5.2V842
				C1112.9,839.2,1110.6,836.9,1107.8,836.9z"/>
			<path class="st12" d="M1169.7,838.3h-6.7c-2.8,0-5.2,2.3-5.2,5.2v4.4c0,2.8,2.3,5.2,5.2,5.2h6.7c2.8,0,5.2-2.3,5.2-5.2v-4.4
				C1174.8,840.6,1172.5,838.3,1169.7,838.3z"/>
			<path class="st12" d="M1132.6,684.4h6.7c2.8,0,5.2-2.3,5.2-5.2v-4.4c0-2.8-2.3-5.2-5.2-5.2h-6.7c-2.8,0-5.2,2.3-5.2,5.2v4.4
				C1127.5,682,1129.8,684.4,1132.6,684.4z"/>
			<path class="st12" d="M1338.5,924.2v-4.4c0-2.8-2.3-5.2-5.2-5.2h-6.7c-2.8,0-5.2,2.3-5.2,5.2v4.4c0,2.8,2.3,5.2,5.2,5.2h6.7
				C1336.2,929.4,1338.5,927,1338.5,924.2z"/>
			<path class="st12" d="M1215,708.7h35c2.9,0,5.3-2.4,5.3-5.3v-4.6c0-2.9-2.4-5.3-5.3-5.3h-35c-2.9,0-5.3,2.4-5.3,5.3v4.6
				C1209.7,706.3,1212.1,708.7,1215,708.7z"/>
			<path class="st10" d="M12.5,871.5v-3c0-1.9-1.6-3.5-3.5-3.5H0v9.9h9.1C11,875,12.5,873.4,12.5,871.5z"/>
			<path class="st10" d="M61.3,815.4h-22c-1.5,0-2.6,1.2-2.6,2.6v2.3c0,1.5,1.2,2.6,2.6,2.6h22c1.5,0,2.6-1.2,2.6-2.6v-2.3
				C64,816.6,62.8,815.4,61.3,815.4z"/>
			<path class="st10" d="M261.5,781.1v-2.1c0-1.4-1.1-2.5-2.5-2.5H215c-1.4,0-2.5,1.1-2.5,2.5v2.1c0,1.4,1.1,2.5,2.5,2.5H259
				C260.3,783.6,261.5,782.4,261.5,781.1z"/>
			<path class="st12" d="M85.3,782.4c0-1.3-1.1-2.4-2.4-2.4H58.2c-1.3,0-2.4,1.1-2.4,2.4v2c0,1.3,1.1,2.4,2.4,2.4h24.7
				c1.3,0,2.4-1.1,2.4-2.4V782.4z"/>
			<path class="st12" d="M115.2,788.6h0.9c1.3,0,2.3-1,2.3-2.3v-2c0-1.3-1-2.3-2.3-2.3h-0.9c-1.3,0-2.3,1-2.3,2.3v2
				C112.9,787.6,113.9,788.6,115.2,788.6z"/>
			<path class="st12" d="M121.8,790.2h-1.4c-1.1,0-2,0.9-2,2v1.7c0,1.1,0.9,2,2,2h1.4c1.1,0,2-0.9,2-2v-1.7
				C123.8,791.1,122.9,790.2,121.8,790.2z"/>
			<path class="st12" d="M110.2,798.8h0.3c1.3,0,2.4-1.1,2.4-2.4v-2c0-1.3-1.1-2.4-2.4-2.4h-0.3c-1.3,0-2.4,1.1-2.4,2.4v2
				C107.8,797.7,108.9,798.8,110.2,798.8z"/>
			<path class="st12" d="M100.3,785.3h0.8c1,0,1.9-0.8,1.9-1.9v-1.6c0-1-0.8-1.9-1.9-1.9h-0.8c-1,0-1.9,0.8-1.9,1.9v1.6
				C98.4,784.5,99.3,785.3,100.3,785.3z"/>
			<path class="st12" d="M76.6,833.7h-0.1c-1.8,0-3.3,1.5-3.3,3.3v3.4c0,1.8,1.5,3.3,3.3,3.3h0.1c1.8,0,3.3-1.5,3.3-3.3v-3.4
				C80,835.2,78.5,833.7,76.6,833.7z"/>
			<path class="st12" d="M38.6,806v-2.4c0-1.5-1.3-2.8-2.8-2.8S33,802,33,803.6v2.4c0,1.5,1.3,2.8,2.8,2.8S38.6,807.5,38.6,806z"/>
			<path class="st12" d="M184,765.1c-1,0-1.7,0.8-1.7,1.7v1.5c0,1,0.8,1.7,1.7,1.7h9.5c1,0,1.7-0.8,1.7-1.7v-1.5
				c0-1-0.8-1.7-1.7-1.7H184z"/>
			<path class="st12" d="M197.2,792.1H144c-1.4,0-2.5,1.1-2.5,2.5v2.2c0,1.4,1.1,2.5,2.5,2.5h53.1c1.4,0,2.5-1.1,2.5-2.5v-2.2
				C199.7,793.3,198.5,792.1,197.2,792.1z"/>
			<path class="st12" d="M118.6,858.7h-29c-2.4,0-4.4,2-4.4,4.4v3.8c0,2.4,2,4.4,4.4,4.4h29c2.4,0,4.4-2,4.4-4.4v-3.8
				C123,860.7,121,858.7,118.6,858.7z"/>
			<path class="st12" d="M1145,636.6h27.5c2.9,0,5.2-2.4,5.2-5.2v-4.5c0-2.9-2.4-5.2-5.2-5.2H1145c-2.9,0-5.2,2.4-5.2,5.2v4.5
				C1139.8,634.3,1142.2,636.6,1145,636.6z"/>
			<path class="st10" d="M160.1,771.9v-1.2c0-0.8-0.6-1.4-1.4-1.4h-28.1c-0.8,0-1.4,0.6-1.4,1.4v1.2c0,0.8,0.6,1.4,1.4,1.4h28.1
				C159.5,773.3,160.1,772.7,160.1,771.9z"/>
			<path class="st10" d="M199.6,620.6V617c0-1.2-1-2.1-2.1-2.1h-67.3c-1.2,0-2.1,1-2.1,2.1v3.6c0,1.2,1,2.1,2.1,2.1h67.3
				C198.7,622.7,199.6,621.8,199.6,620.6z"/>
			<path class="st12" d="M240.2,638.9H275c3.1,0,5.7-2.6,5.7-5.7v-4.9c0-3.1-2.6-5.7-5.7-5.7h-34.8c-3.1,0-5.7,2.6-5.7,5.7v4.9
				C234.5,636.4,237,638.9,240.2,638.9z"/>
			<path class="st12" d="M297.2,638.9h34.8c3.1,0,5.7-2.6,5.7-5.7v-4.9c0-3.1-2.6-5.7-5.7-5.7h-34.8c-3.1,0-5.7,2.6-5.7,5.7v4.9
				C291.6,636.4,294.1,638.9,297.2,638.9z"/>
			<path class="st10" d="M250.3,699.2v-3c0-1.9-1.6-3.5-3.5-3.5H204c-1.9,0-3.5,1.6-3.5,3.5v3c0,1.9,1.6,3.5,3.5,3.5h42.8
				C248.7,702.7,250.3,701.2,250.3,699.2z"/>
			<path class="st10" d="M75,611.3h-7.3c-1.4,0-2.5,1.1-2.5,2.5v2.1c0,1.4,1.1,2.5,2.5,2.5H75c1.4,0,2.5-1.1,2.5-2.5v-2.1
				C77.5,612.4,76.4,611.3,75,611.3z"/>
			<path class="st10" d="M106.5,633.2H100c-1.1,0-2,0.9-2,2v1.7c0,1.1,0.9,2,2,2h6.5c1.1,0,2-0.9,2-2v-1.7
				C108.5,634.1,107.6,633.2,106.5,633.2z"/>
			<path class="st10" d="M305.1,654.4h-19.9c-2.5,0-4.5,2-4.5,4.5v3.9c0,2.5,2,4.5,4.5,4.5h19.9c2.5,0,4.5-2,4.5-4.5v-3.9
				C309.6,656.5,307.5,654.4,305.1,654.4z"/>
			<path class="st12" d="M381.9,647.5h8.3c1.7,0,3-1.4,3-3v-2.6c0-1.7-1.4-3-3-3h-8.3c-1.7,0-3,1.4-3,3v2.6
				C378.9,646.2,380.2,647.5,381.9,647.5z"/>
			<path class="st12" d="M402.2,647.5h6c1.7,0,3-1.4,3-3v-2.6c0-1.7-1.4-3-3-3h-6c-1.7,0-3,1.4-3,3v2.6
				C399.2,646.2,400.6,647.5,402.2,647.5z"/>
			<path class="st12" d="M392.1,656.7v1.9c0,1.2,1,2.3,2.3,2.3h8.6c1.2,0,2.3-1,2.3-2.3v-1.9c0-1.2-1-2.3-2.3-2.3h-8.6
				C393.1,654.4,392.1,655.5,392.1,656.7z"/>
			<path class="st12" d="M107.2,619.9v-2.3c0-1.5-1.2-2.7-2.7-2.7H91.4c-1.5,0-2.7,1.2-2.7,2.7v2.3c0,1.5,1.2,2.7,2.7,2.7h13.1
				C106,622.6,107.2,621.4,107.2,619.9z"/>
			<path class="st12" d="M360.4,629h7.9c2.7,0,5-2.2,5-5v-4.3c0-2.7-2.2-5-5-5h-7.9c-2.7,0-5,2.2-5,5v4.3
				C355.4,626.8,357.6,629,360.4,629z"/>
			<path class="st10" d="M172.9,694.4V691c0-5-4.1-9.1-9.1-9.1H0v21.6h163.8C168.8,703.5,172.9,699.4,172.9,694.4z"/>
			<path class="st12" d="M1043,946.6c0-3.1-2.6-5.7-5.7-5.7h-34.8c-3.1,0-5.7,2.6-5.7,5.7v4.9c0,3.1,2.6,5.7,5.7,5.7h34.8
				c3.1,0,5.7-2.6,5.7-5.7V946.6z"/>
			<path class="st12" d="M1094.4,940.9h-34.8c-3.1,0-5.7,2.6-5.7,5.7v4.9c0,3.1,2.6,5.7,5.7,5.7h34.8c3.1,0,5.7-2.6,5.7-5.7v-4.9
				C1100.1,943.4,1097.5,940.9,1094.4,940.9z"/>
			<path class="st10" d="M1067.4,972.6h-19.9c-2.5,0-4.5,2-4.5,4.5v3.9c0,2.5,2,4.5,4.5,4.5h19.9c2.5,0,4.5-2,4.5-4.5v-3.9
				C1071.9,974.6,1069.9,972.6,1067.4,972.6z"/>
			<path class="st10" d="M1236.1,813.6c-2.5,0-4.5,2-4.5,4.5v3.9c0,2.5,2,4.5,4.5,4.5h19.9c2.5,0,4.5-2,4.5-4.5v-3.9
				c0-2.5-2-4.5-4.5-4.5H1236.1z"/>
			<path class="st12" d="M1155.5,962.7v-2.6c0-1.7-1.4-3-3-3h-8.3c-1.7,0-3,1.4-3,3v2.6c0,1.7,1.4,3,3,3h8.3
				C1154.1,965.7,1155.5,964.3,1155.5,962.7z"/>
			<path class="st12" d="M1170.5,957.1h-6c-1.7,0-3,1.4-3,3v2.6c0,1.7,1.4,3,3,3h6c1.7,0,3-1.4,3-3v-2.6
				C1173.5,958.5,1172.2,957.1,1170.5,957.1z"/>
			<path class="st12" d="M1165.3,972.6h-8.6c-1.2,0-2.3,1-2.3,2.3v1.9c0,1.2,1,2.3,2.3,2.3h8.6c1.2,0,2.3-1,2.3-2.3v-1.9
				C1167.6,973.6,1166.5,972.6,1165.3,972.6z"/>
			<path class="st12" d="M1130.6,933h-7.9c-2.7,0-5,2.2-5,5v4.3c0,2.7,2.2,5,5,5h7.9c2.7,0,5-2.2,5-5V938
				C1135.6,935.3,1133.4,933,1130.6,933z"/>
			<path class="st10" d="M913.6,942.1H726c-5,0-9.1,4.1-9.1,9.1v3.4c0,5,4.1,9.1,9.1,9.1h187.6c5,0,9.1-4.1,9.1-9.1v-3.4
				C922.7,946.2,918.6,942.1,913.6,942.1z"/>
			<path class="st10" d="M276.5,796h-26c-9.1,0-16.5,7.4-16.5,16.5v0c0,9.1,7.4,16.5,16.5,16.5h26c9.1,0,16.5-7.4,16.5-16.5v0
				C293,803.4,285.6,796,276.5,796z"/>
			<path class="st10" d="M167,752.5h7c9.1,0,16.5-7.4,16.5-16.5v0c0-9.1-7.4-16.5-16.5-16.5h-7c-9.1,0-16.5,7.4-16.5,16.5v0
				C150.5,745.1,157.9,752.5,167,752.5z"/>
		</g>
	</g>
	<g>
		<path class="st7" d="M169.3,903.2c0,0-39.1,41.1-48.6,96.8H0V834.2c24.6,48.5,41.2,103.2,51.2,142.9c16.7-71,50.4-187,94.9-202.9
			c0,0-28.2,87.5-38.5,179.5C123.6,930.9,144.2,910.2,169.3,903.2z"/>
		<path class="st7" d="M1098.3,849.8c-29.4,15-79.3,85.9-107.5,150.2H943C1022.6,876.7,1097.1,850.2,1098.3,849.8z"/>
		<path class="st7" d="M296,876c-25.4,12.7-61.1,73.7-86.1,124h-37.3C229.9,900.6,293.8,876.8,296,876z"/>
		<path class="st7" d="M820.6,1001h49.8c-65.8-108-143.9-130.4-143.9-130.4C754,886.9,787.8,938.5,820.6,1001z"/>
		<path class="st7" d="M1128.5,1000c25.4-41.4,56.6-78.3,93.2-93c0,0-23.1,39.8-44.8,93H1128.5z"/>
		<g>
			<path class="st7" d="M221.5,849L221.5,849c-9-5.9-11.3-18.5-4.9-27.8c24.2-35.2,50.6-68.9,79.1-101c7.5-8.5,20.3-9.3,28.2-2l0,0
				c7.9,7.3,8.3,19.9,1.1,28c-27.4,30.9-52.8,63.4-76.1,97.2C242.8,852.3,230.6,854.9,221.5,849z"/>
			<path class="st7" d="M143.6,1000c23.1-51.9,50.4-101.8,81.7-149.1c8.4-12.7,17.1-25.2,26.1-37.5c0.7-1,0.5-2.4-0.4-3.1
				c-1.1-0.8-2.2-1.6-3.3-2.5c-1-0.7-2.4-0.5-3.1,0.5c-9,12.4-17.8,25.1-26.3,37.9C186,895,157.9,946.4,134.3,1000H143.6z"/>
		</g>
		<g>
			<path class="st7" d="M1147.8,841L1147.8,841c8.4-1.6,13.8-10.2,11.9-18.9c-7.2-33.1-16.5-65.7-27.7-97.8
				c-3-8.5-12.1-12.9-20.1-9.9l0,0c-8,3-12.1,12.1-9.2,20.2c10.8,30.9,19.7,62.3,26.7,94.1C1131.2,837.1,1139.4,842.6,1147.8,841z"
				/>
			<path class="st7" d="M1166.8,1000h-6.8c0-65.5-7.9-130.6-23.5-194.1c-0.2-1,0.3-1.9,1.3-2.1c1.1-0.3,2.1-0.5,3.2-0.8
				c0.9-0.2,1.9,0.4,2.1,1.3C1158.8,868.3,1166.8,934,1166.8,1000z"/>
		</g>
		<g>
			<path class="st7" d="M1245.2,927.9L1245.2,927.9c-6.9-1.3-11.4-8.3-9.8-15.5c5.9-27.2,13.5-54,22.8-80.4c2.4-7,10-10.6,16.5-8.1
				l0,0c6.6,2.5,9.9,9.9,7.6,16.6c-8.9,25.4-16.2,51.2-21.9,77.4C1258.8,924.7,1252.1,929.2,1245.2,927.9z"/>
			<path class="st7" d="M1232.1,1000c3-34.5,8.7-68.7,16.9-102.3c0.2-0.8,1-1.3,1.7-1.1c0.9,0.2,1.7,0.4,2.6,0.7
				c0.8,0.2,1.2,1,1,1.8c-8.1,33.2-13.7,66.9-16.7,100.9H1232.1z"/>
		</g>
		<g>
			<path class="st7" d="M883.9,908.5L883.9,908.5c8.7-2.4,13.6-11.9,10.9-20.9c-10.4-34.1-23-67.6-37.5-100.2
				c-3.9-8.6-13.8-12.5-21.9-8.7l0,0c-8.1,3.9-11.6,13.7-7.9,22c14,31.5,26.1,63.7,36.1,96.5C866.1,905.8,875.2,910.9,883.9,908.5z"
				/>
			<path class="st7" d="M901.1,1000c-7.4-43.2-18.1-85.8-32-127.4c-0.3-1,0.2-2,1.1-2.3c1.1-0.4,2.2-0.7,3.3-1.1
				c1-0.3,2,0.2,2.3,1.2c14.1,42.3,25,85.7,32.5,129.6H901.1z"/>
		</g>
		<g>
			<path class="st7" d="M62.2,814.1L62.2,814.1c10.7,1,20.3-7.5,21.1-18.7c2.8-42.6,3-85.5,0.6-128.3c-0.6-11.3-10.2-19.9-20.9-19
				l0,0c-10.8,0.9-18.8,10.4-18.2,21.2c2.3,41.2,2.1,82.5-0.6,123.5C43.5,803.6,51.5,813.2,62.2,814.1z"/>
			<path class="st7" d="M24.6,1000c21-75.9,33.1-153.8,36.3-232.3c0-1.2,1.1-2.2,2.3-2.1c1.4,0,2.8,0.1,4.1,0.1
				c1.2,0,2.1,1.1,2.1,2.3c-3.2,78.4-15.2,156.2-36,232H24.6z"/>
		</g>
		<g>
			<path class="st7" d="M1400,923.4v76.6h-32.3c-30.2-131.3-106.4-232.1-106.4-232.1C1321.5,784.6,1368.2,856,1400,923.4z"/>
		</g>
	</g>
	<path class="st6" d="M774.2,614c3.5-8.9-20.4-89.9-76.7-109.7c-30.7-10.8-65,2.7-72.4,5c-13.6-24.2-39.5-40.6-69.3-40.6
		c-18.6,0-35.6,6.4-49.1,17c-2.3-5.7-5.2-11-8.6-15.9c-14.6-22.9-40.2-38.1-69.3-38.1c-36.6,0-67.7,24-78.2,57.1
		c-9.6-3.4-20-5.3-30.8-5.3c-36.3,0-67.6,21.1-82.4,51.7c-3.7-0.5-7.5-0.7-11.3-0.7c-46.5,0-84.8,34.6-90.7,79.5H774.2z"/>
	<path class="st6" d="M1400,467.2c-7-1.9-14.5-2.9-22.1-2.9c-7.7,0-15.2,1.1-22.3,3c-10.3-21.6-32.3-36.5-57.8-36.5
		c-22.7,0-42.6,11.8-54,29.6c-5.7-1.7-11.7-2.6-17.9-2.6c-26.4,0-48.8,16.5-57.7,39.7c-4.1-1-8.3-1.5-12.7-1.5
		c-27.2,0-49.8,20-53.7,46.2c-1.1,0-2.1-0.1-3.2-0.1c-41.7,0-76.1,31.4-80.7,71.9H1400V467.2z"/>
	<path class="st7" d="M1084.8,614c-1.1-49.3-38.2-88.9-83.8-88.9c-9.7,0-19,1.8-27.7,5.1c-11.7-29.6-38.8-50.4-70.3-50.4
		c-12.8,0-24.9,3.4-35.5,9.5c-11.6-29.8-38.8-50.8-70.5-50.8c-31.4,0-58.4,20.6-70.2,50c-30.2,0.9-56,20.9-67.7,49.2
		c-11.7-7.8-25.4-12.3-40.1-12.3c-42.3,0-76.5,37.2-76.5,83.1c0,1.8,0.1,3.6,0.2,5.4H1084.8z"/>
	<path class="st7" d="M1400,484.1c-11.9,5.8-22.5,13.9-31.3,23.7c-11.9-8.5-26.5-13.5-42.3-13.5c-39.7,0-71.9,31.7-72.9,71.1
		c-27.4,6.9-50.4,24.7-64.1,48.7H1400V484.1z"/>
	<path class="st7" d="M521.4,614l26.6-55l-43.7,26.3c0,0-6.3-69.3-6.3-72.3s-31,83-31,83l-70-79l28.4,97H521.4z"/>
	<line class="st7" x1="467" y1="596" x2="397" y2="517"/>
	<path class="st7" d="M1178,614l28-58l-41.9,34.7c0,0-5.1-56.2-5.1-58.7c0-2.4-25.1,67.3-25.1,67.3L1086,558l14.1,56H1178z"/>
</g>
</svg>
