<?xml version="1.0" encoding="utf-8"?>
<!-- Generator: Adobe Illustrator 18.0.0, SVG Export Plug-In . SVG Version: 6.00 Build 0)  -->
<!DOCTYPE svg PUBLIC "-//W3C//DTD SVG 1.1//EN" "http://www.w3.org/Graphics/SVG/1.1/DTD/svg11.dtd">
<svg version="1.1" id="Layer_1" xmlns="http://www.w3.org/2000/svg" xmlns:xlink="http://www.w3.org/1999/xlink" x="0px" y="0px"
	 viewBox="0 0 1400 1100" enable-background="new 0 0 1400 1100" xml:space="preserve">
<g>
	<defs>
		<rect id="SVGID_55_" width="1400" height="1100"/>
	</defs>
	<clipPath id="SVGID_1_">
		<use xlink:href="#SVGID_55_"  overflow="visible"/>
	</clipPath>
	<linearGradient id="SVGID_2_" gradientUnits="userSpaceOnUse" x1="700" y1="-3.142759e-08" x2="700" y2="775.6982">
		<stop  offset="0" style="stop-color:#69535C"/>
		<stop  offset="1" style="stop-color:#EFE0BD"/>
	</linearGradient>
	<rect clip-path="url(#SVGID_1_)" fill="url(#SVGID_2_)" width="1400" height="775.7"/>
	<polygon clip-path="url(#SVGID_1_)" fill="#353744" points="0,721 25,721 25,658.9 70,658.9 70,683.4 85,683.4 85,619.3 143,619.3 
		143,658.9 158,658.9 158,573 229,519.8 229,658.9 242,658.9 242,597 295,597 295,540 350.7,540 350.7,664.9 360,664.9 360,625.4 
		388,625.4 388,509 457,509 457,576.9 506,576.9 506,658.9 558,658.9 558,499 667,499 667,675 681,675 681,619.3 700,619.3 700,469 
		747.4,469 747.4,446 816.4,446 816.4,545 856.9,545 856.9,588 899.4,588 899.4,640 936,640 936,550 923.7,537.7 938.9,522.6 
		965.7,522.6 971.7,446 975.7,522.3 1005,522.3 1019,536.3 1005.5,549.8 1005.5,639 1025.3,639 1025.3,689 1056.3,689 1056.3,539.7 
		1066.3,539.7 1066.3,519 1080.3,519 1080.3,510.3 1080.3,503.3 1116.7,503.3 1116.7,519 1129,519 1129,540 1141,540 1141,621 
		1157.3,621 1157.3,651 1173,651 1173,556.7 1181.7,556.7 1181.7,551.7 1219,551.7 1219,555.7 1229.7,555.7 1229.7,665 1261,665 
		1261,718.7 1279,718.7 1279,668.7 1287,668.7 1287,661.3 1325.7,661.3 1325.7,667.3 1336.7,667.3 1336.7,715.3 1354.7,715.3 
		1354.7,736.3 1400,736.3 1400,853.3 0,853.3 	"/>
	<rect y="853.3" clip-path="url(#SVGID_1_)" fill="#52524F" width="1400" height="246.7"/>
	<g clip-path="url(#SVGID_1_)">
		<polygon fill="#E8DDC5" points="1185,1100 1128.8,1100 958.4,853.3 977.4,853.3 		"/>
		<polygon fill="#E8DDC5" points="1258.8,1100 1202.6,1100 983.3,853.3 1002.3,853.3 		"/>
		<polygon fill="#E8DDC5" points="927.5,1100 871.3,1100 871.3,853.3 890.3,853.3 		"/>
		<polygon fill="#E8DDC5" points="1523.1,1100 1466.9,1100 1072.7,853.3 1091.7,853.3 		"/>
	</g>
	<polygon clip-path="url(#SVGID_1_)" fill="#AB9774" points="466.6,1100 350.7,1100 491,853.5 527,853.5 	"/>
	<polygon clip-path="url(#SVGID_1_)" fill="#AB9774" points="312.1,1100 196.2,1100 443,853.5 479,853.5 	"/>
	<linearGradient id="SVGID_3_" gradientUnits="userSpaceOnUse" x1="235.8068" y1="119.4502" x2="235.8068" y2="208.4568">
		<stop  offset="0" style="stop-color:#FFFFFF"/>
		<stop  offset="0.853" style="stop-color:#FFFFFF;stop-opacity:0.147"/>
		<stop  offset="1" style="stop-color:#FFFFFF;stop-opacity:0"/>
	</linearGradient>
	<path opacity="0.52" clip-path="url(#SVGID_1_)" fill="url(#SVGID_3_)" d="M418.8,208.5h-366c12.4-31.7,54.9-45.7,84.3-28.5
		c4.5-15.3,27-21.3,38.5-10.2c12-29.6,43-50.4,74.9-50.3s62.8,21.1,74.5,50.8c15.1-11.1,39.7-5.2,48,11.6
		C389.8,174.7,414.9,190.7,418.8,208.5z"/>
	<linearGradient id="SVGID_4_" gradientUnits="userSpaceOnUse" x1="1203.1552" y1="445.4839" x2="1203.1552" y2="516.4905">
		<stop  offset="0" style="stop-color:#FFFFFF"/>
		<stop  offset="0.853" style="stop-color:#FFFFFF;stop-opacity:0.147"/>
		<stop  offset="1" style="stop-color:#FFFFFF;stop-opacity:0"/>
	</linearGradient>
	<path opacity="0.52" clip-path="url(#SVGID_1_)" fill="url(#SVGID_4_)" d="M1349.1,516.5h-292c9.9-25.3,43.8-36.4,67.2-22.8
		c3.6-12.2,21.6-17,30.7-8.1c9.6-23.6,34.3-40.2,59.7-40.1s50.1,16.9,59.5,40.5c12-8.9,31.7-4.2,38.3,9.3
		C1326,489.6,1346,502.3,1349.1,516.5z"/>
	<linearGradient id="SVGID_5_" gradientUnits="userSpaceOnUse" x1="1075.8068" y1="38.5969" x2="1075.8068" y2="127.6035">
		<stop  offset="0" style="stop-color:#FFFFFF"/>
		<stop  offset="0.853" style="stop-color:#FFFFFF;stop-opacity:0.147"/>
		<stop  offset="1" style="stop-color:#FFFFFF;stop-opacity:0"/>
	</linearGradient>
	<path opacity="0.52" clip-path="url(#SVGID_1_)" fill="url(#SVGID_5_)" d="M1258.8,127.6h-366c12.4-31.7,54.9-45.7,84.3-28.5
		c4.5-15.3,27-21.3,38.5-10.2c12-29.6,43-50.4,74.9-50.3c31.9,0.1,62.8,21.1,74.5,50.8c15.1-11.1,39.7-5.2,48,11.6
		C1229.8,93.9,1254.9,109.8,1258.8,127.6z"/>
	<linearGradient id="SVGID_6_" gradientUnits="userSpaceOnUse" x1="763.5613" y1="326.7016" x2="763.5613" y2="422.1173">
		<stop  offset="0" style="stop-color:#FFFFFF"/>
		<stop  offset="0.853" style="stop-color:#FFFFFF;stop-opacity:0.147"/>
		<stop  offset="1" style="stop-color:#FFFFFF;stop-opacity:0"/>
	</linearGradient>
	<path opacity="0.52" clip-path="url(#SVGID_1_)" fill="url(#SVGID_6_)" d="M570.1,422.1h387c-6-27.7-14.5-60.4-35.9-79
		c-17.1-14.9-42-20.2-63.7-13.5c-21.7,6.7-39.3,25.2-44.9,47.2c-5.6-8.9-17.8-15.2-28.3-14c-10.5,1.1-20,8.6-23.6,18.5
		c-15.2-10.4-39.1-3.9-47,12.8c-5.9-18-24.5-31.1-43.5-30.4c-19,0.6-36.7,14.8-41.4,33.2C608.8,382.4,577.8,398.9,570.1,422.1z"/>
	<linearGradient id="SVGID_7_" gradientUnits="userSpaceOnUse" x1="527" y1="208.5084" x2="527" y2="278.5731">
		<stop  offset="0" style="stop-color:#FFFFFF"/>
		<stop  offset="0.853" style="stop-color:#FFFFFF;stop-opacity:0.147"/>
		<stop  offset="1" style="stop-color:#FFFFFF;stop-opacity:0"/>
	</linearGradient>
	<path opacity="0.52" clip-path="url(#SVGID_1_)" fill="url(#SVGID_7_)" d="M384.9,278.6h284.2c-4.4-20.4-10.7-44.3-26.3-58
		c-12.5-11-30.9-14.9-46.8-9.9c-15.9,4.9-28.8,18.5-33,34.6c-4.1-6.6-13.1-11.1-20.8-10.3c-7.7,0.8-14.7,6.3-17.4,13.6
		c-11.2-7.6-28.7-2.9-34.5,9.4c-4.3-13.2-18-22.8-31.9-22.4c-13.9,0.5-27,10.9-30.4,24.4C413.4,249.4,390.6,261.5,384.9,278.6z"/>
	<linearGradient id="SVGID_8_" gradientUnits="userSpaceOnUse" x1="661.7855" y1="58.2387" x2="661.7855" y2="107.9618">
		<stop  offset="0" style="stop-color:#FFFFFF"/>
		<stop  offset="0.853" style="stop-color:#FFFFFF;stop-opacity:0.147"/>
		<stop  offset="1" style="stop-color:#FFFFFF;stop-opacity:0"/>
	</linearGradient>
	<path opacity="0.52" clip-path="url(#SVGID_1_)" fill="url(#SVGID_8_)" d="M805.8,108h-288c12.8-27.8,39.3-45.8,69.7-49.2
		s62.1,10,80.8,34.3c19-15.6,44.4-23.1,68.8-20.3S790.7,88.6,805.8,108z"/>
	
		<linearGradient id="SVGID_9_" gradientUnits="userSpaceOnUse" x1="256.8048" y1="366.1785" x2="256.8048" y2="422.1173" gradientTransform="matrix(-1 0 0 1 549.6097 0)">
		<stop  offset="0" style="stop-color:#FFFFFF"/>
		<stop  offset="0.853" style="stop-color:#FFFFFF;stop-opacity:0.147"/>
		<stop  offset="1" style="stop-color:#FFFFFF;stop-opacity:0"/>
	</linearGradient>
	<path opacity="0.52" clip-path="url(#SVGID_1_)" fill="url(#SVGID_9_)" d="M130.8,422.1h324c-14.4-31.3-44.2-51.5-78.4-55.3
		c-34.2-3.9-69.9,11.3-90.9,38.6c-21.4-17.5-49.9-25.9-77.4-22.9S147.8,400.3,130.8,422.1z"/>
	
		<linearGradient id="SVGID_10_" gradientUnits="userSpaceOnUse" x1="-675.6584" y1="250.6037" x2="-675.6584" y2="306.5424" gradientTransform="matrix(-1 0 0 1 549.6097 0)">
		<stop  offset="0" style="stop-color:#FFFFFF"/>
		<stop  offset="0.853" style="stop-color:#FFFFFF;stop-opacity:0.147"/>
		<stop  offset="1" style="stop-color:#FFFFFF;stop-opacity:0"/>
	</linearGradient>
	<path opacity="0.52" clip-path="url(#SVGID_1_)" fill="url(#SVGID_10_)" d="M1063.3,306.5h324c-14.4-31.3-44.2-51.5-78.4-55.3
		c-34.2-3.9-69.9,11.3-90.9,38.6c-21.4-17.5-49.9-25.9-77.4-22.9S1080.3,284.7,1063.3,306.5z"/>
	<g clip-path="url(#SVGID_1_)">
		<g>
			<rect x="784.7" y="807.4" fill="#727879" width="50.6" height="8.7"/>
			<rect x="816.4" y="756.4" fill="#302433" width="18.9" height="59.8"/>
		</g>
		<g>
			<rect x="733.9" y="809.5" fill="#727879" width="59.3" height="10.2"/>
			<rect x="771.1" y="749.7" fill="#302433" width="22.1" height="70"/>
		</g>
		<g>
			<rect x="1161.1" y="807.4" fill="#727879" width="50.6" height="8.7"/>
			<rect x="1161.1" y="756.4" fill="#302433" width="18.9" height="59.8"/>
		</g>
		<g>
			<rect x="1203.2" y="809.5" fill="#727879" width="59.3" height="10.2"/>
			<rect x="1203.2" y="749.7" fill="#302433" width="22.1" height="70"/>
		</g>
		<g>
			<rect x="844.9" y="801.8" fill="#302433" width="24" height="51.7"/>
			<path fill="#302433" d="M940.6,830.3h-57.8c-3.2,0-5.8,2.6-5.8,5.8v4.3c0,3.2,2.6,5.8,5.8,5.8h57.8c3.2,0,5.8-2.6,5.8-5.8v-4.3
				C946.4,832.9,943.8,830.3,940.6,830.3z"/>
			<path fill="#302433" d="M986,830.3H960c-3.2,0-5.8,2.6-5.8,5.8v4.3c0,3.2,2.6,5.8,5.8,5.8H986c3.2,0,5.8-2.6,5.8-5.8v-4.3
				C991.8,832.9,989.2,830.3,986,830.3z"/>
		</g>
		<g>
			<rect x="1116.9" y="801.8" fill="#302433" width="24" height="51.7"/>
			<path fill="#302433" d="M1045.3,830.3h57.8c3.2,0,5.8,2.6,5.8,5.8v4.3c0,3.2-2.6,5.8-5.8,5.8h-57.8c-3.2,0-5.8-2.6-5.8-5.8v-4.3
				C1039.4,832.9,1042,830.3,1045.3,830.3z"/>
			<path fill="#302433" d="M999.8,830.3h25.9c3.2,0,5.8,2.6,5.8,5.8v4.3c0,3.2-2.6,5.8-5.8,5.8h-25.9c-3.2,0-5.8-2.6-5.8-5.8v-4.3
				C994,832.9,996.6,830.3,999.8,830.3z"/>
		</g>
		<polygon fill="#52524F" points="810.4,165.8 883.2,187.1 992.9,187.1 992.9,123.1 865.9,135.7 810.4,155.1 		"/>
		<polygon fill="#52524F" points="1175.4,165.8 1102.6,187.1 992.9,187.1 992.9,123.1 1119.9,135.7 1175.4,155.1 		"/>
		<polygon fill="#302433" points="1144.2,788.8 846.8,788.8 770.8,761.3 1220.3,761.3 		"/>
		<rect x="764.7" y="276.6" fill="#A5907A" width="456.5" height="450.4"/>
		<rect x="740.9" y="727" fill="#52524F" width="504" height="35.2"/>
		<g>
			<rect x="792.9" y="304.8" fill="#EFE0BD" width="124.6" height="207.8"/>
			<rect x="805.9" y="317.8" fill="#4C656A" width="98.6" height="181.8"/>
			<rect x="930.6" y="304.8" fill="#EFE0BD" width="124.6" height="207.8"/>
			<rect x="943.6" y="317.8" fill="#4C656A" width="98.6" height="181.8"/>
			<rect x="1068.4" y="304.8" fill="#EFE0BD" width="124.6" height="207.8"/>
			<rect x="1081.4" y="317.8" fill="#4C656A" width="98.6" height="181.8"/>
		</g>
		<path fill="#52524F" d="M1172.6,538.2H813.2c0,11-9,20-20,20v119c11,0,20,9,20,20h359.4c0-11,9-20,20-20v-119
			C1181.6,558.2,1172.6,549.2,1172.6,538.2z"/>
		<path fill="#A5907A" d="M819.3,690.2c-2.5-9.3-9.8-16.6-19.1-19.1V564.2c9.3-2.5,16.6-9.8,19.1-19.1h347.2
			c2.5,9.3,9.8,16.6,19.1,19.1v106.8c-9.3,2.5-16.6,9.8-19.1,19.1H819.3z"/>
		<path fill="#52524F" d="M824.2,683.2c-3.4-7.5-9.5-13.6-17-17v-97c7.5-3.4,13.6-9.5,17-17h337.4c3.4,7.5,9.5,13.6,17,17v97
			c-7.5,3.4-13.6,9.5-17,17H824.2z"/>
		<path fill="#A5907A" d="M828.4,676.2c-3.5-5.8-8.4-10.7-14.2-14.2v-88.6c5.8-3.5,10.7-8.4,14.2-14.2h329
			c3.5,5.8,8.4,10.7,14.2,14.2V662c-5.8,3.5-10.7,8.4-14.2,14.2H828.4z"/>
		<path fill="#EFE0BD" d="M1147.9,789.6v-14.6h-310v14.6l-16.4,19c5.4,11.7,6,13.1,11.4,24.8h320c5.4-11.7,6-13.1,11.4-24.8
			L1147.9,789.6z"/>
		<rect x="805.9" y="374.4" fill="#A5907A" width="98.6" height="8"/>
		<rect x="943.6" y="374.4" fill="#A5907A" width="98.6" height="8"/>
		<rect x="1081.4" y="374.4" fill="#A5907A" width="98.6" height="8"/>
		<circle fill="#52524F" cx="998.2" cy="613.7" r="44"/>
		<path fill="#727879" d="M998.2,651.7c-21,0-38-17-38-38s17-38,38-38s38,17,38,38S1019.1,651.7,998.2,651.7z"/>
		<path fill="#52524F" d="M998.2,640.7c-15.8,0-28.6-12.8-28.6-28.6c0-15.8,12.8-28.6,28.6-28.6c15.8,0,28.6,12.8,28.6,28.6
			C1026.8,627.8,1014,640.7,998.2,640.7z"/>
		<g>
			<path fill="#EFE0BD" d="M998.2,614.2c-8.7,0-16.2-5-19.9-12.2c-1.5,3-2.4,6.4-2.4,10.1c0,12.3,10,22.3,22.3,22.3
				s22.3-10,22.3-22.3c0-3.6-0.9-7-2.4-10.1C1014.4,609.2,1006.8,614.2,998.2,614.2z"/>
			<path fill="#FFF2DA" d="M998.2,614.2c8.7,0,16.2-5,19.9-12.2c-3.7-7.2-11.2-12.2-19.9-12.2s-16.2,5-19.9,12.2
				C982,609.2,989.5,614.2,998.2,614.2z"/>
		</g>
		<rect x="747.4" y="257.7" fill="#52524F" width="491" height="18.8"/>
		<rect x="747.4" y="210.5" fill="#52524F" width="491" height="18.8"/>
		<polygon fill="#302433" points="1238.4,229.3 747.4,229.3 762.6,257.7 1223.2,257.7 		"/>
		<polygon fill="#A5907A" points="1119.9,141.7 992.9,123.1 865.9,141.7 865.9,210.5 1119.9,210.5 		"/>
		<g>
			<path fill="#EFE0BD" d="M1175.4,165.8c-23.4-16-88.9-32.1-182.5-32.1s-159.1,16.1-182.5,32.1l-9-13.2
				c31-21.2,106.2-34.8,191.5-34.8s160.5,13.7,191.5,34.8L1175.4,165.8z"/>
		</g>
		<g>
			<rect x="896.6" y="156.7" fill="#4C656A" width="82.1" height="38"/>
			<path fill="#EFE0BD" d="M886.6,146.7v58h102.1v-58H886.6z M978.7,194.7h-82.1v-38h82.1V194.7z"/>
		</g>
		<g>
			<rect x="1007.1" y="156.7" fill="#4C656A" width="82.1" height="38"/>
			<path fill="#EFE0BD" d="M997.1,146.7v58h102.1v-58H997.1z M1007.1,156.7h82.1v38h-82.1V156.7z"/>
		</g>
		<path fill="#302433" d="M992.9,799.2c-4.7,0-8.5,3.8-8.5,8.5v3.5c0,4.7,3.8,8.5,8.5,8.5s8.5-3.8,8.5-8.5v-3.5
			C1001.4,803,997.6,799.2,992.9,799.2z"/>
	</g>
</g>
</svg>
